<svg width="1000" height="515" viewBox="0 0 1000 515" fill="none" xmlns="http://www.w3.org/2000/svg">
<g clip-path="url(#clip0_3041_707)">
<path d="M158.881 -0.00366211C93.2014 -0.00366211 47.9251 28.989 13.6619 61.7749C13.6619 61.7749 -0.173169 74.965 0.00164277 75.3669L143.897 220.129L287.766 75.3669C260.521 37.6314 209.152 -0.00366211 158.881 -0.00366211Z" fill="#FA4616"/>
<path d="M514.191 -0.00360107C448.513 -0.00360107 403.236 28.989 368.971 61.775C368.971 61.775 356.337 74.6133 355.763 75.367L177.903 254.322L321.574 398.857L643.078 75.367C615.831 37.6315 564.488 -0.00360107 514.191 -0.00360107Z" fill="#FA4616"/>
<path d="M870.479 -0.00360107C804.798 -0.00360107 759.524 28.989 725.259 61.775C725.259 61.775 712.098 74.7137 711.599 75.367L355.806 433.351L393.466 471.237C451.73 529.852 547.1 529.852 605.364 471.237L998.914 75.367H999.365C972.119 37.6315 920.773 -0.00360107 870.479 -0.00360107Z" fill="#FA4616"/>
</g>
<defs>
<clipPath id="clip0_3041_707">
<rect width="1000" height="514.706" fill="white"/>
</clipPath>
</defs>
</svg>
